<svg data-v-0dd9719b="" version="1.0" xmlns="http://www.w3.org/2000/svg" xmlns:xlink="http://www.w3.org/1999/xlink" width="100%" height="100%" viewBox="0 0 340.000000 250.000000" preserveAspectRatio="xMidYMid meet" color-interpolation-filters="sRGB" style="margin: auto;"> <rect data-v-0dd9719b="" x="0" y="0" width="100%" height="100%" fill="#fff" fill-opacity="1" class="background"></rect> <rect data-v-0dd9719b="" x="0" y="0" width="100%" height="100%" fill="url(#watermark)" fill-opacity="1" class="watermarklayer"></rect> <g data-v-0dd9719b="" fill="#003c64" class="icon-text-wrapper icon-svg-group iconsvg" transform="translate(52.79719543457031,95)"><g class="iconsvg-imagesvg" transform="translate(0,0)"><g><rect fill="#003c64" fill-opacity="0" stroke-width="2" x="0" y="0" width="60" height="60" class="image-rect"></rect> <svg x="0" y="0" width="60" height="60" filtersec="colorsb8415697063" class="image-svg-svg primary" style="overflow: visible;"><svg xmlns="http://www.w3.org/2000/svg" viewBox="0 0 56.52000045776367 56.52000045776367"><g><g fill-rule="evenodd"><path fill="#003c64" d="M0 26.03V0h56.52v26.03L38.51 8.02 28.26 18.27 18.01 8.02 0 26.03z"></path><path d="M33.26 23.26L38.51 18l18 18v10.53L33.26 23.26zM0 46.53V36l18-18 5.25 5.25L0 46.53z" fill="#960000"></path><path d="M56.52 56.52H0l28.26-28.26 28.26 28.26zm-24.73-7.07h-7.06v-7.06h7.07v7.06z" fill="#c80000"></path></g></g></svg></svg> <!----></g></g> <g transform="translate(67,9.046388626098633)"><g data-gra="path-name" fill-rule="" class="tp-name iconsvg-namesvg" transform="translate(0,0)"><g transform="scale(1)"><g><path d="M18.26-22.91L18.26-25.9Q18.93-27.23 20.25-27.23L20.25-27.23Q22.91-26.89 22.58-24.9L22.58-24.9 22.58-22.91Q33.87-22.25 39.84-22.25L39.84-22.25Q42.17-22.25 41.17-20.92L41.17-20.92Q38.85-18.93 37.52-18.26 36.19-17.6 34.2-18.59L34.2-18.59Q29.88-20.25 22.58-20.59L22.58-20.59 22.58-18.26Q28.89-17.27 31.21-18.26L31.21-18.26Q32.21-18.26 33.54-17.27L33.54-17.27Q34.2-16.6 33.87-15.61L33.87-15.61Q33.2-10.96 33.87-2.99L33.87-2.99Q34.2-1.33 31.54-0.33L31.54-0.33Q31.21-0.33 30.88-0.33L30.88-0.33Q29.88-0.33 29.88-2.32L29.88-2.32Q29.55-8.3 30.21-13.95L30.21-13.95Q30.21-15.61 25.9-15.94L25.9-15.94Q24.57-14.61 24.9-13.28L24.9-13.28 27.89-12.95Q29.22-11.95 27.56-11.29L27.56-11.29Q24.9-11.29 22.25-11.29L22.25-11.29 22.25-9.3 25.57-9.3Q28.22-8.96 28.22-8.3L28.22-8.3Q28.55-7.64 27.56-6.97L27.56-6.97Q25.9-7.3 24.9-7.3L24.9-7.3 22.25-7.3 22.25-3.32Q22.58-1.66 20.92-1.33 19.26-1 18.59-2.99L18.59-2.99 18.59-7.3Q15.61-7.3 12.95-6.64L12.95-6.64Q11.62-6.64 11.95-7.97L11.95-7.97Q12.29-9.63 13.61-9.63L13.61-9.63Q15.94-9.3 18.59-9.3L18.59-9.3 18.59-11.29Q15.94-11.62 14.28-10.96L14.28-10.96Q12.95-10.63 12.95-11.95L12.95-11.95Q13.28-13.28 14.28-13.61L14.28-13.61Q15.27-12.95 15.61-13.28L15.61-13.28Q15.94-15.27 14.61-15.61L14.61-15.61Q11.62-15.61 11.62-14.28L11.62-14.28Q11.95-10.63 11.29-6.31L11.29-6.31Q10.96-4.65 9.63-2.99L9.63-2.99Q8.3-1.66 6.64-1L6.64-1Q5.31-0.66 3.65-1.66L3.65-1.66Q2.32-2.66 2.99-3.32L2.99-3.32Q6.64-4.65 7.97-7.3L7.97-7.3Q9.3-9.63 8.96-13.61L8.96-13.61Q8.63-14.94 8.63-15.94L8.63-15.94Q8.3-18.26 10.29-18.26L10.29-18.26Q10.96-17.6 13.61-17.6L13.61-17.6Q16.27-17.93 18.59-17.93L18.59-17.93 18.59-20.59Q7.97-20.92 2.66-18.59L2.66-18.59Q1.33-18.59 1.66-20.25L1.66-20.25Q2.99-22.25 4.98-22.91L4.98-22.91Q6.97-21.91 18.26-22.91L18.26-22.91ZM21.91-13.28L21.91-13.28Q22.91-14.28 22.91-15.94L22.91-15.94Q20.25-16.27 17.93-15.61L17.93-15.61Q17.6-14.28 18.59-13.28L18.59-13.28Q20.25-13.61 21.91-13.28ZM63.09-27.23L63.09-27.23Q64.41-26.56 64.75-25.9L64.75-25.9Q65.74-24.9 66.07-23.57L66.07-23.57Q69.06-23.57 75.04-23.24L75.04-23.24Q83.34-23.57 83.34-22.58L83.34-22.58Q83.01-21.25 81.35-19.59L81.35-19.59Q79.02-17.6 76.04-19.26L76.04-19.26Q73.05-20.59 68.4-20.92L68.4-20.92Q62.09-21.25 55.78-20.59L55.78-20.59Q51.8-20.25 48.81-19.59L48.81-19.59Q47.15-18.93 45.82-18.59 44.49-18.26 44.49-19.59L44.49-19.59Q45.49-21.91 47.15-22.58L47.15-22.58Q49.47-22.91 51.13-22.58L51.13-22.58Q56.11-22.58 59.77-23.57L59.77-23.57Q60.43-24.57 60.76-25.9L60.76-25.9Q61.09-27.56 63.09-27.23ZM55.12-18.93L55.12-18.93Q56.11-18.59 57.44-18.59L57.44-18.59Q59.43-18.93 61.43-18.93L61.43-18.93Q64.41-19.26 68.07-18.59L68.07-18.59Q69.06-18.26 71.39-18.93L71.39-18.93Q73.71-18.26 73.71-16.93L73.71-16.93 73.38-14.94Q73.05-13.28 72.71-11.95L72.71-11.95Q72.71-10.96 71.72-10.96L71.72-10.96Q71.39-10.96 71.05-10.96L71.05-10.96Q69.73-11.29 68.73-11.62L68.73-11.62Q67.73-11.62 65.41-11.29L65.41-11.29 65.74-6.31Q66.07-5.31 66.07-3.98L66.07-3.98Q66.07-1.99 64.41-1L64.41-1Q62.09 0 59.77-0.66L59.77-0.66Q58.77-1.33 57.77-1.99L57.77-1.99Q57.11-2.66 56.45-3.65L56.45-3.65Q56.78-4.32 58.77-3.65L58.77-3.65Q62.09-3.65 61.76-6.64L61.76-6.64Q62.09-8.3 61.76-11.29L61.76-11.29Q61.43-11.62 57.77-11.29L57.77-11.29Q56.78-10.96 55.45-10.63L55.45-10.63Q54.12-10.63 54.12-11.95L54.12-11.95Q54.45-15.27 53.13-16.93L53.13-16.93Q53.13-18.59 55.12-18.93ZM58.44-13.28L58.44-13.28Q60.43-13.61 62.75-13.61L62.75-13.61Q65.41-13.28 68.4-13.61L68.4-13.61Q69.39-13.61 69.06-15.61L69.06-15.61Q68.4-16.93 64.75-16.6L64.75-16.6Q61.43-16.93 58.11-16.27L58.11-16.27Q57.11-15.94 57.11-14.94L57.11-14.94Q57.11-12.95 58.44-13.28ZM56.78-10.29L56.78-10.29Q57.44-10.63 58.11-9.96L58.11-9.96Q59.77-8.96 58.44-7.64L58.44-7.64Q57.11-6.64 55.78-5.64L55.78-5.64Q53.79-4.65 51.46-3.65L51.46-3.65Q48.48-2.66 46.48-2.66L46.48-2.66Q44.82-2.99 45.82-3.65L45.82-3.65Q45.82-3.98 49.14-5.31L49.14-5.31Q51.8-6.64 54.12-7.97L54.12-7.97Q55.45-8.96 56.78-10.29ZM69.39-9.96L69.39-9.96Q70.39-10.63 72.05-8.96L72.05-8.96Q74.71-7.3 77.03-5.64L77.03-5.64Q79.02-4.65 80.68-3.32L80.68-3.32Q81.02-2.66 80.02-2.32L80.02-2.32Q76.37-2.32 72.71-4.65L72.71-4.65Q71.05-5.64 69.39-6.97L69.39-6.97Q67.73-8.96 69.39-9.96ZM110.57-25.57L110.57-25.57Q113.55-25.9 113.22-22.58L113.22-22.58Q112.56-14.94 112.89-6.97L112.89-6.97Q118.54-5.98 118.2-7.97L118.2-7.97Q118.54-12.29 117.87-16.6L117.87-16.6Q117.54-20.25 119.53-20.25L119.53-20.25Q122.52-20.59 121.86-16.93L121.86-16.93Q121.19-11.95 122.19-6.64L122.19-6.64Q122.19-5.31 121.86-3.98L121.86-3.98Q120.86-1.66 118.2-2.66L118.2-2.66Q116.54-3.32 114.55-3.65L114.55-3.65Q106.25-4.32 102.27-2.66L102.27-2.66Q98.61-1.33 99.94-6.64L99.94-6.64Q101.27-10.63 100.94-14.61L100.94-14.61Q99.61-19.92 102.27-19.59L102.27-19.59Q104.59-19.26 104.26-16.27L104.26-16.27Q103.59-12.62 103.93-7.64L103.93-7.64Q103.93-6.31 105.25-6.64L105.25-6.64Q106.91-6.97 108.57-6.97L108.57-6.97Q108.91-14.61 108.57-23.24L108.57-23.24Q108.57-25.57 110.57-25.57ZM100.27-25.23L100.27-25.23Q101.27-25.23 100.94-24.24L100.94-24.24Q99.61-21.25 96.95-19.59L96.95-19.59Q96.95-11.29 96.62-3.32L96.62-3.32Q96.62-1 94.3-1L94.3-1Q91.64-1 92.3-3.65L92.3-3.65Q93.3-11.29 92.97-17.93L92.97-17.93Q89.65-15.94 87.66-17.93L87.66-17.93Q86-20.92 87.32-21.58L87.32-21.58Q92.97-21.25 100.27-25.23ZM138.79-7.97L138.79-7.97Q139.12-9.63 138.79-11.29L138.79-11.29 137.79-11.29Q135.8-10.29 135.47-11.95L135.47-11.95Q135.8-14.94 135.47-17.27L135.47-17.27Q135.8-18.93 137.79-18.26L137.79-18.26 138.79-18.26Q139.12-19.92 138.79-21.91L138.79-21.91Q137.13-22.25 135.8-21.91L135.8-21.91Q133.81-21.91 133.81-19.92L133.81-19.92 133.81-11.29Q133.81-9.63 134.14-7.97L134.14-7.97Q135.14-7.3 138.79-7.97ZM145.1-22.58L145.1-22.58Q143.77-21.58 141.45-21.91L141.45-21.91Q141.11-19.92 141.45-18.26L141.45-18.26 142.77-18.26Q145.76-18.93 145.43-16.93L145.43-16.93Q145.1-14.28 145.1-12.29 145.1-10.29 142.44-11.29L142.44-11.29 141.45-11.29Q141.11-9.63 141.45-7.97L141.45-7.97Q142.77-7.64 147.09-7.64L147.09-7.64Q148.42-7.3 147.75-5.98L147.75-5.98Q146.76-5.31 139.45-5.31L139.45-5.31Q134.8-5.64 132.81-4.32L132.81-4.32Q131.82-3.65 130.82-4.65L130.82-4.65Q129.82-5.98 130.49-6.97L130.49-6.97Q131.48-9.3 131.48-11.95L131.48-11.95Q131.48-19.59 130.49-21.91L130.49-21.91Q129.82-25.9 134.8-24.57L134.8-24.57Q136.46-23.91 142.44-24.24L142.44-24.24Q145.76-24.24 145.1-22.58ZM145.76-22.91L145.76-22.91Q146.43-24.9 147.75-25.57L147.75-25.57Q149.41-25.23 150.41-25.23L150.41-25.23Q153.73-25.57 157.38-25.57L157.38-25.57Q160.7-25.57 164.02-25.23L164.02-25.23Q169-24.9 169-24.57L169-24.57Q167.34-20.59 164.36-21.58L164.36-21.58Q160.7-22.91 156.39-22.91L156.39-22.91 156.05-20.25Q158.38-19.92 160.04-20.59L160.04-20.59Q162.36-21.25 163.36-19.59L163.36-19.59Q164.02-18.59 163.69-17.6L163.69-17.6Q163.03-12.95 163.36-9.3L163.36-9.3Q163.36-7.64 162.03-7.64L162.03-7.64Q160.04-7.3 160.04-9.3L160.04-9.3Q160.37-13.61 160.04-17.27L160.04-17.27Q159.71-18.26 158.05-18.26L158.05-18.26 152.4-18.26Q151.07-17.93 151.07-15.27L151.07-15.27 151.07-8.96Q150.74-7.97 148.75-7.97L148.75-7.97Q148.09-7.97 147.75-8.63L147.75-8.63Q148.09-10.29 148.09-11.29L148.09-11.29Q148.42-15.94 147.75-18.93L147.75-18.93Q148.09-20.25 150.08-20.59L150.08-20.59Q151.41-19.92 153.4-20.25L153.4-20.25 153.73-22.91Q151.74-23.24 146.76-21.91L146.76-21.91Q145.43-21.58 145.76-22.91ZM156.72-15.27L156.72-15.27 156.72-11.29Q156.39-6.97 153.73-4.32L153.73-4.32Q150.41-1 143.11-1.33L143.11-1.33Q141.78-1.66 142.44-2.66L142.44-2.66Q154.39-4.65 153.73-11.62L153.73-11.62 153.73-15.94Q153.73-16.93 154.73-16.93L154.73-16.93Q156.39-16.93 156.72-15.27ZM160.37-6.64L160.37-6.64Q164.36-2.99 167.01-1.33L167.01-1.33Q167.68-0.33 166.35-0.33L166.35-0.33Q162.36-1 158.71-3.32L158.71-3.32Q157.38-4.32 156.72-5.31L156.72-5.31Q156.72-5.98 157.71-6.97L157.71-6.97Q159.04-7.97 160.37-6.64ZM137.79-14.61L137.79-14.61Q137.79-13.61 138.79-13.28L138.79-13.28 141.78-13.28Q142.77-13.28 142.77-14.61L142.77-14.61Q143.11-16.27 141.45-16.6L141.45-16.6 138.79-16.6Q137.79-15.94 137.79-14.61Z" transform="translate(-1.5943976640701294, 27.28472328186035)"></path></g> <!----> <!----> <!----> <!----> <!----> <!----> <!----></g></g> <g data-gra="path-slogan" fill-rule="" class="tp-slogan iconsvg-slogansvg" fill="#960000" transform="translate(37.17780303955078,33.9547233581543)"><!----> <!----> <g transform="scale(1, 1)"><g transform="scale(1)"><path d="M2.30-8.58L6.61-1.64L6.61-8.58L7.73-8.58L7.73 0L6.42 0L2.06-6.94L2.02-6.94L2.02 0L0.89 0L0.89-8.58L2.30-8.58ZM15.19 0L14.34-2.48L10.88-2.48L9.98 0L8.81 0L12.05-8.58L13.36-8.58L16.45 0L15.19 0ZM12.61-7.31L11.25-3.52L13.92-3.52L12.66-7.31L12.61-7.31ZM18.89-8.58L23.20-1.64L23.20-8.58L24.33-8.58L24.33 0L23.02 0L18.66-6.94L18.61-6.94L18.61 0L17.48 0L17.48-8.58L18.89-8.58ZM25.41-1.92L25.41-2.77L26.48-2.77L26.48-2.16Q26.48-0.75 27.80-0.75L27.80-0.75Q29.16-0.75 29.16-2.25L29.16-2.25L29.16-8.58L30.33-8.58L30.33-2.30Q30.28 0.09 27.84 0.14L27.84 0.14Q25.55 0.09 25.41-1.92L25.41-1.92ZM32.30-8.58L33.47-8.58L33.47 0L32.30 0L32.30-8.58ZM36.84-8.58L41.16-1.64L41.16-8.58L42.28-8.58L42.28 0L40.97 0L36.61-6.94L36.56-6.94L36.56 0L35.44 0L35.44-8.58L36.84-8.58ZM50.48-3.61L47.86-3.61L47.86-4.59L51.61-4.59L51.61 0L50.86 0L50.58-1.08Q49.59 0.09 47.77 0.14L47.77 0.14Q46.03 0.14 45.09-0.75L45.09-0.75Q43.69-2.06 43.73-4.36L43.73-4.36Q44.06-8.63 47.81-8.81L47.81-8.81Q51-8.63 51.47-6L51.47-6L50.34-6Q49.88-7.78 47.77-7.83L47.77-7.83Q45.09-7.64 44.95-4.31L44.95-4.31Q44.95-0.75 47.81-0.75L47.81-0.75Q48.84-0.75 49.59-1.31L49.59-1.31Q50.53-2.06 50.48-3.61L50.48-3.61ZM63.47-8.58L60.56-4.41L63.61 0L62.16 0L59.81-3.52L57.47 0L56.06 0L59.16-4.41L56.25-8.58L57.70-8.58L59.86-5.30L62.06-8.58L63.47-8.58ZM64.88-8.58L66.05-8.58L66.05 0L64.88 0L64.88-8.58ZM73.69 0L72.84-2.48L69.38-2.48L68.48 0L67.31 0L70.55-8.58L71.86-8.58L74.95 0L73.69 0ZM71.11-7.31L69.75-3.52L72.42-3.52L71.16-7.31L71.11-7.31ZM77.39-8.58L81.70-1.64L81.70-8.58L82.83-8.58L82.83 0L81.52 0L77.16-6.94L77.11-6.94L77.11 0L75.98 0L75.98-8.58L77.39-8.58ZM91.55-8.58L88.31-3.47L88.31 0L87.14 0L87.14-3.47L83.91-8.58L85.27-8.58L87.70-4.45L90.19-8.58L91.55-8.58ZM92.77-8.58L93.94-8.58L93.94 0L92.77 0L92.77-8.58Z" transform="translate(-0.890625, 8.8125)"></path></g></g></g></g></g><defs v-gra="od"></defs></svg>